<svg xmlns="http://www.w3.org/2000/svg" xmlns:xlink="http://www.w3.org/1999/xlink" width="2000" zoomAndPan="magnify" viewBox="0 0 1500 1499.999933" height="2000" preserveAspectRatio="xMidYMid meet" version="1.0"><defs><g/><clipPath id="24ada071a8"><rect x="0" width="1058" y="0" height="741"/></clipPath><clipPath id="5c2a5cf47e"><rect x="0" width="729" y="0" height="813"/></clipPath></defs><g transform="matrix(1, 0, 0, 1, 24, 284)"><g clip-path="url(#24ada071a8)"><g fill="#ffffff" fill-opacity="1"><g transform="translate(0.404969, 594.722089)"><g><path d="M 1001.140625 0 L 792.453125 0 L 792.453125 -317.1875 L 605.953125 0 L 450.3125 0 L 264.15625 -317.1875 L 264.15625 0 L 55.46875 0 L 55.46875 -497.453125 L 303.328125 -497.453125 L 528.3125 -142.125 L 752.9375 -497.453125 L 1001.140625 -497.453125 Z M 1001.140625 0 "/></g></g></g></g></g><g transform="matrix(1, 0, 0, 1, 689, 407)"><g clip-path="url(#5c2a5cf47e)"><g fill="#e83f58" fill-opacity="1"><g transform="translate(0.172572, 646.255463)"><g><path d="M 292.6875 0 L 61.453125 0 L 61.453125 -551.1875 L 694.84375 -551.1875 L 694.84375 -414.828125 L 292.6875 -414.828125 L 292.6875 -328.40625 L 632.609375 -328.40625 L 632.609375 -222.390625 L 292.6875 -222.390625 Z M 292.6875 0 "/></g></g></g></g></g></svg>