<svg xmlns="http://www.w3.org/2000/svg" xmlns:xlink="http://www.w3.org/1999/xlink" width="2000" zoomAndPan="magnify" viewBox="0 0 1500 1499.999933" height="2000" preserveAspectRatio="xMidYMid meet" version="1.0"><defs><g/><clipPath id="c097624b50"><path d="M 751 120 L 1405.679688 120 L 1405.679688 848.839844 L 751 848.839844 Z M 751 120 " clip-rule="nonzero"/></clipPath><clipPath id="21370fdf9f"><rect x="0" width="655" y="0" height="729"/></clipPath><clipPath id="2601291982"><rect x="0" width="1406" y="0" height="849"/></clipPath></defs><g transform="matrix(1, 0, 0, 1, 48, 319)"><g clip-path="url(#2601291982)"><g fill="#0d0d0f" fill-opacity="1"><g transform="translate(0.809905, 533.135393)"><g><path d="M 897.140625 0 L 710.140625 0 L 710.140625 -284.234375 L 543.015625 0 L 403.53125 0 L 236.71875 -284.234375 L 236.71875 0 L 49.703125 0 L 49.703125 -445.78125 L 271.8125 -445.78125 L 473.421875 -127.359375 L 674.71875 -445.78125 L 897.140625 -445.78125 Z M 897.140625 0 "/></g></g></g><g clip-path="url(#c097624b50)"><g transform="matrix(1, 0, 0, 1, 751, 120)"><g clip-path="url(#21370fdf9f)"><g fill="#e83f58" fill-opacity="1"><g transform="translate(0.891429, 579.852225)"><g><path d="M 262.71875 0 L 55.15625 0 L 55.15625 -494.75 L 623.6875 -494.75 L 623.6875 -372.359375 L 262.71875 -372.359375 L 262.71875 -294.78125 L 567.84375 -294.78125 L 567.84375 -199.625 L 262.71875 -199.625 Z M 262.71875 0 "/></g></g></g></g></g></g></g></g></svg>